<svg xmlns="http://www.w3.org/2000/svg" viewBox="0 0 500 400">
  <defs>
    <linearGradient id="grad1" x1="0%" y1="0%" x2="0%" y2="100%">
      <stop offset="0%" style="stop-color:#52b788;stop-opacity:1" />
      <stop offset="100%" style="stop-color:#2d6a4f;stop-opacity:1" />
    </linearGradient>
  </defs>
  <ellipse cx="250" cy="350" rx="200" ry="40" fill="#95d5b2" opacity="0.3"/>
  <path d="M 200 300 Q 180 250 200 200" stroke="url(#grad1)" stroke-width="8" fill="none"/>
  <circle cx="200" cy="200" r="30" fill="#52b788"/>
  <ellipse cx="185" cy="195" rx="20" ry="25" fill="#74c69d" transform="rotate(-30 185 195)"/>
  <ellipse cx="215" cy="195" rx="20" ry="25" fill="#74c69d" transform="rotate(30 215 195)"/>
  <path d="M 300 300 Q 320 250 300 200" stroke="url(#grad1)" stroke-width="8" fill="none"/>
  <circle cx="300" cy="200" r="35" fill="#2d6a4f"/>
  <ellipse cx="280" cy="190" rx="25" ry="30" fill="#52b788" transform="rotate(-30 280 190)"/>
  <ellipse cx="320" cy="190" rx="25" ry="30" fill="#52b788" transform="rotate(30 320 190)"/>
  <path d="M 250 300 Q 240 240 260 180" stroke="url(#grad1)" stroke-width="10" fill="none"/>
  <circle cx="260" cy="180" r="40" fill="#40916c"/>
  <ellipse cx="235" cy="170" rx="28" ry="35" fill="#52b788" transform="rotate(-25 235 170)"/>
  <ellipse cx="285" cy="170" rx="28" ry="35" fill="#52b788" transform="rotate(25 285 170)"/>
  <ellipse cx="260" cy="145" rx="25" ry="32" fill="#74c69d"/>
</svg>
